<?xml version="1.0" standalone="no"?><!DOCTYPE svg PUBLIC "-//W3C//DTD SVG 1.1//EN" "http://www.w3.org/Graphics/SVG/1.1/DTD/svg11.dtd"><svg class="icon" width="200px" height="200.00px" viewBox="0 0 1024 1024" version="1.1" xmlns="http://www.w3.org/2000/svg"><path fill="#333333" d="M378.4192 267.1104A122.624 122.624 0 0 0 256 389.632v278.2208a44.544 44.544 0 0 0 89.088 0V455.68c0-6.0416 5.12-11.1616 11.1104-11.1616 5.9904 0 11.1104 5.12 11.1104 11.1616v508.4672c0 34.816 18.688 59.8528 53.5552 59.8528 32.9728 0 57.7536-25.6 57.7536-59.8528v-285.9008c0-6.144 4.9664-11.1104 11.1104-11.1104s11.1616 4.9664 11.1616 11.1104v292.1984c0.0512 0.1536 0.5632-0.2048 0.6656 0C504.6272 1001.216 527.872 1024 558.592 1024c34.816 0 53.6064-25.088 53.6064-59.8528v-504.32c0-5.9904 5.12-11.1616 11.1104-11.1616 5.9904 0 11.1104 5.12 11.1104 11.1616v207.9744a44.544 44.544 0 0 0 89.088 0V389.632a122.624 122.624 0 0 0-122.4704-122.4704H378.4192zM489.728 0a122.624 122.624 0 0 0-122.4192 122.4192 122.624 122.624 0 0 0 122.4192 122.4704A122.624 122.624 0 0 0 612.1984 122.368 122.624 122.624 0 0 0 489.728 0z" /></svg>